<mxfile host="app.diagrams.net" modified="2023-08-07T08:05:49.205Z" agent="Mozilla/5.0 (Macintosh; Intel Mac OS X 10_15_7) AppleWebKit/605.1.15 (KHTML, like Gecko) Version/16.1 Safari/605.1.15" etag="V-NVSVZmty8HnAhklmdK" version="21.6.6" type="github">
  <diagram id="C5RBs43oDa-KdzZeNtuy" name="Page-1">
    <mxGraphModel dx="909" dy="643" grid="1" gridSize="10" guides="1" tooltips="1" connect="1" arrows="1" fold="1" page="1" pageScale="1" pageWidth="1654" pageHeight="1169" math="0" shadow="0">
      <root>
        <mxCell id="WIyWlLk6GJQsqaUBKTNV-0" />
        <mxCell id="WIyWlLk6GJQsqaUBKTNV-1" parent="WIyWlLk6GJQsqaUBKTNV-0" />
        <mxCell id="RKF-In8v_WkzQ7DVranW-1" value="O域大数据平台" style="rounded=0;whiteSpace=wrap;html=1;spacingTop=-400;" vertex="1" parent="WIyWlLk6GJQsqaUBKTNV-1">
          <mxGeometry x="822" y="365" width="230" height="440" as="geometry" />
        </mxCell>
        <mxCell id="WIyWlLk6GJQsqaUBKTNV-3" value="信令层面：华为" style="rounded=1;whiteSpace=wrap;html=1;fontSize=12;glass=0;strokeWidth=1;shadow=0;" parent="WIyWlLk6GJQsqaUBKTNV-1" vertex="1">
          <mxGeometry x="432" y="385" width="130" height="40" as="geometry" />
        </mxCell>
        <mxCell id="WIyWlLk6GJQsqaUBKTNV-11" value="物联网智能管理系统 (扬钧)&lt;br&gt;计算5Gtob信令指标地市粒度、DNN粒度等" style="rounded=1;whiteSpace=wrap;html=1;fontSize=12;glass=0;strokeWidth=1;shadow=0;" parent="WIyWlLk6GJQsqaUBKTNV-1" vertex="1">
          <mxGeometry x="1102" y="400" width="120" height="70" as="geometry" />
        </mxCell>
        <mxCell id="RKF-In8v_WkzQ7DVranW-4" style="edgeStyle=orthogonalEdgeStyle;rounded=0;orthogonalLoop=1;jettySize=auto;html=1;exitX=1;exitY=0.5;exitDx=0;exitDy=0;entryX=0;entryY=0.5;entryDx=0;entryDy=0;" edge="1" parent="WIyWlLk6GJQsqaUBKTNV-1" source="-mIsSW-FJkQCvbx71ZnP-0" target="RKF-In8v_WkzQ7DVranW-2">
          <mxGeometry relative="1" as="geometry" />
        </mxCell>
        <mxCell id="-mIsSW-FJkQCvbx71ZnP-0" value="用户层面：华为、欣诺" style="rounded=1;whiteSpace=wrap;html=1;fontSize=12;glass=0;strokeWidth=1;shadow=0;" parent="WIyWlLk6GJQsqaUBKTNV-1" vertex="1">
          <mxGeometry x="432" y="435" width="130" height="40" as="geometry" />
        </mxCell>
        <mxCell id="RKF-In8v_WkzQ7DVranW-3" value="" style="rounded=0;html=1;jettySize=auto;orthogonalLoop=1;fontSize=11;endArrow=block;endFill=0;endSize=8;strokeWidth=1;shadow=0;labelBackgroundColor=none;edgeStyle=orthogonalEdgeStyle;" edge="1" parent="WIyWlLk6GJQsqaUBKTNV-1" source="WIyWlLk6GJQsqaUBKTNV-3" target="RKF-In8v_WkzQ7DVranW-2">
          <mxGeometry relative="1" as="geometry">
            <mxPoint x="562" y="405" as="sourcePoint" />
            <mxPoint x="687" y="445" as="targetPoint" />
            <Array as="points" />
          </mxGeometry>
        </mxCell>
        <mxCell id="RKF-In8v_WkzQ7DVranW-5" style="edgeStyle=orthogonalEdgeStyle;rounded=0;orthogonalLoop=1;jettySize=auto;html=1;exitX=1;exitY=0.5;exitDx=0;exitDy=0;entryX=0;entryY=0.5;entryDx=0;entryDy=0;" edge="1" parent="WIyWlLk6GJQsqaUBKTNV-1" source="RKF-In8v_WkzQ7DVranW-2" target="RKF-In8v_WkzQ7DVranW-6">
          <mxGeometry relative="1" as="geometry">
            <mxPoint x="832.9200000000001" y="436.08000000000004" as="targetPoint" />
          </mxGeometry>
        </mxCell>
        <mxCell id="RKF-In8v_WkzQ7DVranW-2" value="DPI总采平台博瑞得" style="rounded=1;whiteSpace=wrap;html=1;" vertex="1" parent="WIyWlLk6GJQsqaUBKTNV-1">
          <mxGeometry x="622" y="405" width="120" height="60" as="geometry" />
        </mxCell>
        <mxCell id="RKF-In8v_WkzQ7DVranW-10" style="edgeStyle=orthogonalEdgeStyle;rounded=0;orthogonalLoop=1;jettySize=auto;html=1;exitX=1;exitY=0.5;exitDx=0;exitDy=0;entryX=0;entryY=0.5;entryDx=0;entryDy=0;" edge="1" parent="WIyWlLk6GJQsqaUBKTNV-1" source="RKF-In8v_WkzQ7DVranW-6" target="RKF-In8v_WkzQ7DVranW-9">
          <mxGeometry relative="1" as="geometry" />
        </mxCell>
        <mxCell id="RKF-In8v_WkzQ7DVranW-6" value="DPI数据处理" style="rounded=1;whiteSpace=wrap;html=1;" vertex="1" parent="WIyWlLk6GJQsqaUBKTNV-1">
          <mxGeometry x="842" y="420" width="80" height="30" as="geometry" />
        </mxCell>
        <mxCell id="RKF-In8v_WkzQ7DVranW-12" style="edgeStyle=orthogonalEdgeStyle;rounded=0;orthogonalLoop=1;jettySize=auto;html=1;exitX=1;exitY=0.5;exitDx=0;exitDy=0;" edge="1" parent="WIyWlLk6GJQsqaUBKTNV-1" source="RKF-In8v_WkzQ7DVranW-7" target="RKF-In8v_WkzQ7DVranW-8">
          <mxGeometry relative="1" as="geometry" />
        </mxCell>
        <mxCell id="RKF-In8v_WkzQ7DVranW-7" value="OMC厂家网管" style="rounded=1;whiteSpace=wrap;html=1;fontSize=12;glass=0;strokeWidth=1;shadow=0;" vertex="1" parent="WIyWlLk6GJQsqaUBKTNV-1">
          <mxGeometry x="432" y="505" width="130" height="40" as="geometry" />
        </mxCell>
        <mxCell id="RKF-In8v_WkzQ7DVranW-14" style="edgeStyle=orthogonalEdgeStyle;rounded=0;orthogonalLoop=1;jettySize=auto;html=1;exitX=1;exitY=0.5;exitDx=0;exitDy=0;" edge="1" parent="WIyWlLk6GJQsqaUBKTNV-1" source="RKF-In8v_WkzQ7DVranW-8" target="RKF-In8v_WkzQ7DVranW-13">
          <mxGeometry relative="1" as="geometry" />
        </mxCell>
        <mxCell id="RKF-In8v_WkzQ7DVranW-8" value="统一采集平台 (直真)" style="rounded=1;whiteSpace=wrap;html=1;fontSize=12;glass=0;strokeWidth=1;shadow=0;" vertex="1" parent="WIyWlLk6GJQsqaUBKTNV-1">
          <mxGeometry x="617" y="505" width="130" height="40" as="geometry" />
        </mxCell>
        <mxCell id="RKF-In8v_WkzQ7DVranW-11" style="edgeStyle=orthogonalEdgeStyle;rounded=0;orthogonalLoop=1;jettySize=auto;html=1;exitX=1;exitY=0.5;exitDx=0;exitDy=0;" edge="1" parent="WIyWlLk6GJQsqaUBKTNV-1" source="RKF-In8v_WkzQ7DVranW-9" target="WIyWlLk6GJQsqaUBKTNV-11">
          <mxGeometry relative="1" as="geometry" />
        </mxCell>
        <mxCell id="RKF-In8v_WkzQ7DVranW-9" value="HIVE租户" style="rounded=1;whiteSpace=wrap;html=1;" vertex="1" parent="WIyWlLk6GJQsqaUBKTNV-1">
          <mxGeometry x="952" y="420" width="80" height="30" as="geometry" />
        </mxCell>
        <mxCell id="RKF-In8v_WkzQ7DVranW-13" value="统采租户" style="rounded=1;whiteSpace=wrap;html=1;" vertex="1" parent="WIyWlLk6GJQsqaUBKTNV-1">
          <mxGeometry x="842" y="510" width="80" height="30" as="geometry" />
        </mxCell>
      </root>
    </mxGraphModel>
  </diagram>
</mxfile>
